<svg width="24" height="24" viewBox="0 0 24 24" fill="none" xmlns="http://www.w3.org/2000/svg">
<path d="M2 5.66669H4.22222H22" stroke="#000" stroke-width="1.5" stroke-linecap="round" stroke-linejoin="round"/>
<path d="M7.5555 5.66666V3.51851C7.5555 2.94879 7.78963 2.4024 8.20638 1.99954C8.62312 1.59668 9.18835 1.37036 9.77772
1.37036H14.2222C14.8115 1.37036 15.3768 1.59668 15.7935 1.99954C16.2103 2.4024 16.4444 2.94879 16.4444 3.51851V5.66666M19.7777
5.66666V20.7037C19.7777 21.2734 19.5436 21.8198 19.1268 22.2227C18.7101 22.6255 18.1449 22.8518 17.5555 22.8518H6.44439C5.85502
22.8518 5.28979 22.6255 4.87304 22.2227C4.45629 21.8198 4.22217 21.2734 4.22217 20.7037V5.66666H19.7777Z" stroke="#000" stroke-width="1.5" stroke-linecap="round" stroke-linejoin="round"/>
<path d="M9.77783 11.037V17.4815" stroke="#000" stroke-width="1.5" stroke-linecap="round" stroke-linejoin="round"/>
<path d="M14.2222 11.037V17.4815" stroke="#000" stroke-width="1.5" stroke-linecap="round" stroke-linejoin="round"/>
</svg>
